PathFileType	4	(X/Y/Z)	/home/abdul/Desktop/myosuite/custom_workspace/IK/output/S19_12_2.trc
DataRate	CameraRate	NumFrames	NumMarkers	Units	OrigDataRate	OrigDataStartFrame	OrigNumFrames
200.0	200.0	71	3	mm	200.0	553	1474
Frame#	Time	V_Shoulder			V_Elbow			V_Wrist		
		X1	Y1	Z1	X2	Y2	Z2	X3	Y3	Z3

553	2.76	-102.70756054442099	694.7799620578202	326.7837163174971				-138.64342743816786	438.05359787133784	210.3538158398624
554	2.765	-102.72139133096043	695.1461800088924	326.8597249125659				-138.6520949520543	439.1865206464947	211.36100040341728
555	2.77	-102.73456012765007	695.5085254902996	326.93505790327623				-138.64012932355166	440.30146573721555	212.35111411780503
556	2.775	-102.74705231014114	695.8669276978231	327.00971047400657				-138.6074765756044	441.39804868566216	213.32408216081055
557	2.78	-102.75885314429543	696.221316662677	327.083678094713				-138.554100011896	442.4759057072605	214.27984739113464
558	2.785	-102.76994779446052	696.5716233215162	327.15695652453604				-138.479980451796	443.53469453186824	215.2183706542218
559	2.79	-102.78032133236358	696.917779587377	327.2295418149219				-138.38511644638567	444.57409519332236	216.13963105337717
560	2.795	-102.789958746634	697.2597184214366	327.3014303122371				-138.26952447474224	445.5938107645353	217.0436261837478
561	2.8	-102.79884495296251	697.5973739054745	327.37261865985903				-138.13323911969127	446.59356803544904	217.93037232685072
562	2.805	-102.80696480490451	697.9306813149205	327.44310379972495				-137.97631322226857	447.5731181313167	218.7999046034525
563	2.81	-102.81430310533267	698.2595771923634	327.5128829733215				-137.7988180141648	448.5322370689496	219.65227708273977
564	2.815	-102.8208446185444	698.5839994213947	327.58195372210275				-137.60084322746093	449.4707262487521	220.48756284587282
565	2.82	-102.82657408302641	698.9038873006584	327.65031388732024				-137.38249718099615	450.3884128805572	221.30585400217626
566	2.825	-102.8314762248786	699.2191816179744	327.71796160925584				-137.14390684274525	451.2851503414847	222.10726165640048
567	2.83	-102.83553577189689	699.5298247243968	327.7848953258454				-136.8852178676194	452.16081846425806	222.89191582567332
568	2.835	-102.83873746831397	699.835760608073	327.85111377068534				-136.60659461014063	453.01532375464143	223.6599653049637
569	2.84	-102.84106609019459	700.136934967761	327.91661597041394				-136.30822011147703	453.8485995368958	224.41157748008638
570	2.845	-102.84250646148054	700.4332952858641	327.9814012414645				-135.99029606036464	454.6606060263914	225.1469380874971
571	2.85	-102.84304347067877	700.7247909008365	328.0454691861848				-135.65304272748037	455.4513303287682	225.86625092035257
572	2.855	-102.8426620881844	701.0113730788167	328.10881968832274				-135.296698872869	456.2207863652892	226.56973748054327
573	2.86	-102.84134738422809	701.2929950843413	328.1714529078781				-134.9215216260676	456.96901472429516	227.25763657664348
574	2.865	-102.8390845474358	701.569612249992	328.2333692753227				-134.52778633861107	457.69608243893197	227.93020386796678
575	2.87	-102.83585890398668	701.8411820448283	328.29456948519305				-134.11578640864346	458.4020826915939	228.5877113551586
576	2.875	-102.83165593735312	702.1076641414592	328.35505448906315				-133.68583307740192	459.0871344457919	229.23044681800354
577	2.88	-102.82646130860473	702.3690204816024	328.4148254879024				-133.23825519738375	459.7513820064289	229.8587132013715
578	2.885	-102.82026087725637	702.625215339991	328.47388392383306				-132.77339897204934	460.39499450973267	230.47282795047124
579	2.89	-102.81304072263798	702.8762153864741	328.5322314712956				-132.29162766696058	461.018165344362	231.0731222968215
580	2.895	-102.8047871657622	703.1219897461707	328.58987002763894				-131.79332129229954	461.6211115054708	231.65994049658912
581	2.9	-102.79548679166362	703.3625100575345	328.64680170315023				-131.27887625676013	462.2040728837667	232.2336390231742
582	2.905	-102.78512647218112	703.597750528183	328.70302881054374				-130.7487049928548	462.7673114918568	232.79458571615126
583	2.91	-102.77369338915368	703.827687988358	328.75855385392765				-130.20323555372823	463.3111106304181	233.34315888889063
584	2.915	-102.76117505799711	704.0523019418757	328.8133795172718				-129.64291118162345	463.8357739969624	233.87974639739616
585	2.92	-102.74755935162757	704.2715746144358	328.86750865240134				-129.06818984819904	464.3416247401937	234.4047446730923
586	2.925	-102.73283452469643	704.4854909991565	328.9209442665401				-128.4795437669527	464.8290044631675	234.91855772248266
587	2.93	-102.71698923809744	704.6940388992106	328.97368950943405				-127.87745887806449	465.2982721786623	235.42159609677543
588	2.935	-102.70001258370813	704.8972089674398	329.0257476600826				-127.26243430603317	465.74980322035844	235.91427583473478
589	2.94	-102.68189410932264	705.094994742828	329.0771221131097				-126.63498179054187	466.18398811359134	236.39701738216283
590	2.945	-102.66262384373393	705.2873926837168	329.1278163648081				-125.99562509105309	466.6012314095974	236.87024449154916
591	2.95	-102.64219232191995	705.4744021976585	329.1778339988893				-125.34489936570017	467.0019504873097	237.33438310554237
592	2.955	-102.62059061028832	705.6560256677977	329.2271786719771				-124.68335052511156	467.38657432687677	237.78986022799555
593	2.96	-102.59781033193116	705.8322684756854	329.2758540988793				-124.01153456187389	467.755542259175	238.23710278642125
594	2.965	-102.57384369184139	706.0031390204313	329.3238640376788				-123.33001685641426	468.109302695663	238.67653648975516
595	2.97	-102.54868350204009	706.1686487341061	329.3712122746802				-122.63937146015624	468.448311842984	239.10858468537435
596	2.975	-102.52232320656309	706.3288120933158	329.4179026092543				-121.94018035688043	468.7730324067554	239.5336672193435
597	2.98	-102.49475690625434	706.4836466268689	329.4639388386221				-121.2330327032993	469.0839322889994	239.9521993038723
598	2.985	-102.46597938331236	706.6331729194688	329.50932474261776				-120.51852404993514	469.3814832836591	240.36459039595678
599	2.99	-102.43598612553502	706.777414611374	329.5540640684765				-119.79725554347033	469.6661597746123	240.77124309115035
600	2.995	-102.4047733502076	706.916398393967	329.59816051568777				-119.06983311182061	469.93843744054266	241.1725520363621
601	3.0	-102.37233802757835	707.0501540011854	329.6416177209583				-118.33686663326363	470.19879197095236	241.56890286551607
602	3.005	-102.33867790386519	707.178714196779	329.68443924332996				-117.59896909103676	470.44769779750163	241.96067116182064
603	3.01	-102.30379152373708	707.3021147573548	329.7266285494929				-116.85675571489959	470.68562684474284	242.34822145029764
604	3.015	-102.26767825221326	707.4203944511902	329.7681889993415				-116.11084311123656	470.91304730417653	242.73190622410152
605	3.02	-102.23033829592346	707.5335950127934	329.8091238318129				-115.36184838335507	471.1304224353971	243.1120650080245
606	3.025	-102.19177272367291	707.641761113205	329.8494361510537				-114.61038824371073	471.33820939791957	243.4890234624342
607	3.03	-102.15198348625552	707.7449403260383	329.8891289129555				-113.85707811986734	471.53685811707805	243.86309253072284
608	3.035	-102.11097343545981	707.8431830892654	329.928204912102				-113.10253125607008	471.7268101871798	244.23456763316864
609	3.04	-102.06874634221215	707.9365426627622	329.96666676916766				-112.34735781238007	471.9084978148654	244.60372790991718
610	3.045	-102.02530691380286	708.0250750816393	330.0045169188093				-111.59216396338155	472.0823428053859	244.97083551558381
611	3.05	-101.98066081014208	708.1088391053858	330.04175759808726				-110.83755099853289	472.24875559425413	245.33613496776331
612	3.055	-101.93481465899275	708.1878961628681	330.07839083545514				-110.08411442628723	472.408134326463	245.6998525515058
613	3.06	-101.8877760701295	708.2623102932321	330.11441844035306				-109.33244308415655	472.5608639851906	246.06219578158266
614	3.065	-101.83955364837414	708.3321480827577	330.14984199343934				-108.58311825693463	472.70731557163094	246.42335292412247
615	3.07	-101.79015700545874	708.3974785977398	330.18466283749274				-107.8367128053291	472.8478453373094	246.78349257894916
616	3.075	-101.73959677067073	708.4583733134554	330.2188820690169				-107.09379030727979	472.9827940699507	247.14276332369934
617	3.08	-101.68788460023465	708.5149060393054	330.25250053057493				-106.35490421425908	473.1124864336829	247.5012934205365
618	3.085	-101.63503318538835	708.5671528402131	330.28551880388125				-105.62059702486044	473.2372303640749	247.85919058602138
619	3.09	-101.58105625911291	708.6151919543751	330.3179372036755				-104.89139947798165	473.35731651822323	248.21654182443342
620	3.095	-101.5259686014786	708.6591037074671	330.3497557724008				-104.16782976790063	473.47301777982716	248.57341332457923
621	3.1	-101.46978604357069	708.6989704234135	330.38097427570546				-103.4503927835232	473.58458881892307	248.9298504198625
622	3.105	-101.41252546996229	708.7348763318373	330.4115921987863				-102.73957937405274	473.69226570569145	249.28587761113295
623	3.11	-101.35420481970401	708.7669074723125	330.44160874358863				-102.03586564329261	473.7962655775013	249.64149865157952
